<?xml version="1.0" encoding="UTF-8"?>
<svg xmlns="http://www.w3.org/2000/svg" xmlns:xlink="http://www.w3.org/1999/xlink" width="64pt" height="64pt" viewBox="0 0 64 64" version="1.1">
<g id="surface1">
<path style=" stroke:none;fill-rule:nonzero;fill:rgb(100%,100%,100%);fill-opacity:1;" d="M 12.074219 40.976562 L 17.886719 3.796875 C 17.972656 3.230469 18.414062 2.785156 18.976562 2.6875 C 19.542969 2.589844 20.105469 2.867188 20.378906 3.371094 L 26.625 15.023438 Z M 33.867188 60.828125 C 32.652344 61.503906 31.179688 61.5 29.96875 60.824219 L 10.667969 50 L 45.546875 15.058594 C 45.898438 14.703125 46.417969 14.578125 46.894531 14.730469 C 47.371094 14.882812 47.71875 15.285156 47.800781 15.78125 L 50.566406 32.878906 C 49.71875 32.738281 48.859375 32.667969 48 32.667969 C 39.53125 32.667969 32.667969 39.53125 32.667969 48 C 32.667969 52.285156 34.425781 56.160156 37.257812 58.941406 Z M 11.195312 46.640625 L 30.820312 11.628906 C 31.050781 11.191406 31.503906 10.917969 32 10.917969 C 32.496094 10.917969 32.949219 11.191406 33.179688 11.628906 L 37.648438 20.136719 Z M 34.667969 48 C 34.667969 40.636719 40.636719 34.667969 48 34.667969 C 55.363281 34.667969 61.332031 40.636719 61.332031 48 C 61.332031 55.363281 55.363281 61.332031 48 61.332031 C 40.636719 61.332031 34.667969 55.363281 34.667969 48 Z M 54 51.332031 L 54 48.667969 L 48 46 L 42 48.667969 L 42 51.332031 L 48 48.667969 Z M 42 44 L 42 46.667969 L 48 44 L 54 46.667969 L 54 44 L 48 41.332031 Z M 48 52 L 48 54.667969 L 53.25 52.332031 L 50.25 51 Z M 48 52 "/>
</g>
</svg>
