<?xml version="1.0" encoding="UTF-8"?>
<svg xmlns="http://www.w3.org/2000/svg" xmlns:xlink="http://www.w3.org/1999/xlink" width="64pt" height="64pt" viewBox="0 0 64 64" version="1.1">
<g id="surface1">
<path style=" stroke:none;fill-rule:nonzero;fill:rgb(100%,100%,100%);fill-opacity:1;" d="M 32 40.046875 L 32 33.863281 C 38.542969 33.863281 43.625 27.371094 41.113281 20.484375 C 40.191406 17.953125 38.148438 15.910156 35.597656 14.988281 C 28.710938 12.492188 22.21875 17.554688 22.21875 24.097656 L 16.054688 24.097656 C 16.054688 13.667969 26.140625 5.53125 37.082031 8.949219 C 41.851562 10.449219 45.667969 14.246094 47.148438 19.019531 C 50.566406 29.957031 42.429688 40.046875 32 40.046875 Z M 32 40.046875 "/>
<path style=" stroke:none;fill-rule:evenodd;fill:rgb(100%,100%,100%);fill-opacity:1;" d="M 32.019531 33.898438 L 25.851562 33.898438 L 25.851562 27.734375 L 32.019531 27.734375 Z M 32.019531 33.898438 "/>
<path style=" stroke:none;fill-rule:evenodd;fill:rgb(100%,100%,100%);fill-opacity:1;" d="M 25.851562 38.617188 L 21.132812 38.617188 L 21.132812 33.898438 L 25.851562 33.898438 Z M 25.851562 38.617188 "/>
<path style=" stroke:none;fill-rule:evenodd;fill:rgb(100%,100%,100%);fill-opacity:1;" d="M 21.132812 33.898438 L 17.175781 33.898438 L 17.175781 29.9375 L 21.132812 29.9375 Z M 21.132812 33.898438 "/>
<path style=" stroke:none;fill-rule:nonzero;fill:rgb(100%,100%,100%);fill-opacity:1;" d="M 5.640625 46.300781 C 4.84375 45.738281 3.832031 45.46875 2.675781 45.46875 L 0.144531 45.46875 L 0.144531 53.515625 L 2.695312 53.515625 C 3.851562 53.515625 4.863281 53.226562 5.660156 52.628906 C 6.09375 52.320312 6.4375 51.886719 6.6875 51.34375 C 6.925781 50.800781 7.050781 50.152344 7.050781 49.445312 C 7.050781 48.742188 6.925781 48.109375 6.6875 47.566406 C 6.4375 47.023438 6.09375 46.589844 5.640625 46.300781 Z M 1.628906 46.824219 L 2.421875 46.824219 C 3.308594 46.824219 4.03125 47.003906 4.59375 47.347656 C 5.207031 47.730469 5.515625 48.433594 5.515625 49.445312 C 5.515625 50.496094 5.207031 51.234375 4.59375 51.632812 C 4.066406 51.976562 3.34375 52.15625 2.441406 52.15625 L 1.628906 52.15625 Z M 1.628906 46.824219 "/>
<path style=" stroke:none;fill-rule:nonzero;fill:rgb(100%,100%,100%);fill-opacity:1;" d="M 8.804688 45.359375 C 8.550781 45.359375 8.351562 45.449219 8.171875 45.613281 C 8.007812 45.777344 7.917969 45.976562 7.917969 46.226562 C 7.917969 46.480469 8.007812 46.679688 8.171875 46.859375 C 8.335938 47.023438 8.550781 47.113281 8.804688 47.113281 C 9.039062 47.113281 9.257812 47.023438 9.4375 46.859375 C 9.601562 46.699219 9.691406 46.480469 9.691406 46.226562 C 9.691406 45.976562 9.601562 45.777344 9.4375 45.613281 C 9.257812 45.449219 9.039062 45.359375 8.804688 45.359375 Z M 8.804688 45.359375 "/>
<path style=" stroke:none;fill-rule:nonzero;fill:rgb(100%,100%,100%);fill-opacity:1;" d="M 8.082031 47.835938 L 9.507812 47.835938 L 9.507812 53.515625 L 8.082031 53.515625 Z M 8.082031 47.835938 "/>
<path style=" stroke:none;fill-rule:nonzero;fill:rgb(100%,100%,100%);fill-opacity:1;" d="M 14.699219 48.308594 C 14.265625 47.925781 13.792969 47.691406 13.269531 47.691406 C 12.472656 47.691406 11.824219 47.964844 11.316406 48.507812 C 10.8125 49.03125 10.539062 49.71875 10.539062 50.550781 C 10.539062 51.34375 10.792969 52.03125 11.300781 52.574219 C 11.804688 53.097656 12.472656 53.371094 13.253906 53.371094 C 13.792969 53.371094 14.28125 53.226562 14.664062 52.917969 L 14.664062 53.042969 C 14.664062 53.515625 14.535156 53.875 14.28125 54.128906 C 14.03125 54.382812 13.6875 54.507812 13.253906 54.507812 C 12.601562 54.507812 12.183594 54.253906 11.679688 53.570312 L 10.703125 54.507812 L 10.722656 54.542969 C 10.9375 54.832031 11.246094 55.125 11.679688 55.394531 C 12.09375 55.664062 12.636719 55.808594 13.269531 55.808594 C 14.121094 55.808594 14.808594 55.558594 15.3125 55.03125 C 15.820312 54.507812 16.074219 53.820312 16.074219 52.972656 L 16.074219 47.820312 L 14.664062 47.820312 L 14.664062 48.308594 Z M 14.320312 51.671875 C 14.066406 51.960938 13.738281 52.085938 13.34375 52.085938 C 12.925781 52.085938 12.621094 51.941406 12.367188 51.671875 C 12.113281 51.378906 12.003906 51.019531 12.003906 50.566406 C 12.003906 50.097656 12.132812 49.734375 12.367188 49.445312 C 12.601562 49.15625 12.945312 49.03125 13.34375 49.03125 C 13.757812 49.03125 14.066406 49.175781 14.320312 49.445312 C 14.570312 49.734375 14.699219 50.117188 14.699219 50.566406 C 14.699219 51.019531 14.570312 51.378906 14.320312 51.671875 Z M 14.320312 51.671875 "/>
<path style=" stroke:none;fill-rule:nonzero;fill:rgb(100%,100%,100%);fill-opacity:1;" d="M 17.320312 47.835938 L 18.746094 47.835938 L 18.746094 53.515625 L 17.320312 53.515625 Z M 17.320312 47.835938 "/>
<path style=" stroke:none;fill-rule:nonzero;fill:rgb(100%,100%,100%);fill-opacity:1;" d="M 18.042969 45.359375 C 17.789062 45.359375 17.589844 45.449219 17.410156 45.613281 C 17.246094 45.777344 17.15625 45.976562 17.15625 46.226562 C 17.15625 46.480469 17.246094 46.679688 17.410156 46.859375 C 17.574219 47.023438 17.789062 47.113281 18.042969 47.113281 C 18.277344 47.113281 18.496094 47.023438 18.675781 46.859375 C 18.839844 46.699219 18.929688 46.480469 18.929688 46.226562 C 18.929688 45.976562 18.839844 45.777344 18.675781 45.613281 C 18.496094 45.449219 18.296875 45.359375 18.042969 45.359375 Z M 18.042969 45.359375 "/>
<path style=" stroke:none;fill-rule:nonzero;fill:rgb(100%,100%,100%);fill-opacity:1;" d="M 21.875 46.300781 L 20.464844 46.300781 L 20.464844 47.835938 L 19.652344 47.835938 L 19.652344 49.140625 L 20.464844 49.140625 L 20.464844 51.488281 C 20.464844 52.230469 20.609375 52.753906 20.898438 53.0625 C 21.1875 53.371094 21.714844 53.515625 22.4375 53.515625 C 22.671875 53.515625 22.90625 53.515625 23.125 53.496094 L 23.195312 53.496094 L 23.195312 52.195312 L 22.707031 52.210938 C 22.363281 52.210938 22.148438 52.15625 22.039062 52.03125 C 21.929688 51.90625 21.875 51.652344 21.875 51.273438 L 21.875 49.121094 L 23.214844 49.121094 L 23.214844 47.820312 L 21.875 47.820312 Z M 21.875 46.300781 "/>
<path style=" stroke:none;fill-rule:nonzero;fill:rgb(100%,100%,100%);fill-opacity:1;" d="M 29.902344 45.449219 L 31.332031 45.449219 L 31.332031 53.515625 L 29.902344 53.515625 Z M 29.902344 45.449219 "/>
<path style=" stroke:none;fill-rule:nonzero;fill:rgb(100%,100%,100%);fill-opacity:1;" d="M 45.757812 51.488281 C 45.503906 51.777344 45.234375 52.03125 45.035156 52.15625 C 44.835938 52.285156 44.582031 52.355469 44.292969 52.355469 C 43.878906 52.355469 43.535156 52.210938 43.261719 51.886719 C 42.992188 51.578125 42.847656 51.164062 42.847656 50.695312 C 42.847656 50.207031 42.992188 49.808594 43.261719 49.5 C 43.535156 49.191406 43.878906 49.03125 44.292969 49.03125 C 44.746094 49.03125 45.234375 49.320312 45.648438 49.808594 L 46.589844 48.902344 C 45.976562 48.109375 45.199219 47.730469 44.257812 47.730469 C 43.480469 47.730469 42.792969 48.019531 42.234375 48.578125 C 41.671875 49.140625 41.402344 49.84375 41.402344 50.695312 C 41.402344 51.542969 41.691406 52.25 42.234375 52.808594 C 42.792969 53.371094 43.460938 53.660156 44.257812 53.660156 C 45.289062 53.660156 46.121094 53.207031 46.699219 52.394531 Z M 45.757812 51.488281 "/>
<path style=" stroke:none;fill-rule:nonzero;fill:rgb(100%,100%,100%);fill-opacity:1;" d="M 51.632812 48.632812 C 51.433594 48.34375 51.164062 48.125 50.820312 47.964844 C 50.476562 47.800781 50.078125 47.710938 49.644531 47.710938 C 48.851562 47.710938 48.199219 48 47.710938 48.578125 C 47.242188 49.15625 46.988281 49.863281 46.988281 50.710938 C 46.988281 51.578125 47.257812 52.285156 47.765625 52.828125 C 48.289062 53.371094 48.976562 53.640625 49.824219 53.640625 C 50.785156 53.640625 51.578125 53.242188 52.175781 52.484375 L 52.210938 52.449219 L 51.273438 51.542969 C 51.183594 51.652344 51.054688 51.761719 50.945312 51.867188 C 50.800781 51.996094 50.675781 52.105469 50.53125 52.175781 C 50.3125 52.285156 50.078125 52.339844 49.808594 52.339844 C 49.410156 52.339844 49.085938 52.230469 48.832031 51.996094 C 48.597656 51.777344 48.453125 51.488281 48.414062 51.128906 L 52.195312 51.128906 L 52.210938 50.601562 C 52.210938 50.242188 52.15625 49.878906 52.066406 49.554688 C 51.976562 49.230469 51.832031 48.921875 51.632812 48.632812 Z M 48.507812 49.96875 C 48.578125 49.699219 48.707031 49.464844 48.886719 49.300781 C 49.085938 49.101562 49.335938 49.011719 49.628906 49.011719 C 49.96875 49.011719 50.242188 49.101562 50.421875 49.300781 C 50.585938 49.484375 50.695312 49.699219 50.710938 49.96875 Z M 48.507812 49.96875 "/>
<path style=" stroke:none;fill-rule:nonzero;fill:rgb(100%,100%,100%);fill-opacity:1;" d="M 57.113281 48.269531 C 56.679688 47.910156 56.082031 47.710938 55.339844 47.710938 C 54.871094 47.710938 54.417969 47.820312 54.019531 48.019531 C 53.640625 48.199219 53.277344 48.523438 53.042969 48.921875 L 53.0625 48.941406 L 53.984375 49.808594 C 54.363281 49.210938 54.78125 48.996094 55.339844 48.996094 C 55.648438 48.996094 55.882812 49.066406 56.082031 49.230469 C 56.261719 49.390625 56.371094 49.589844 56.371094 49.84375 L 56.371094 50.117188 C 56.007812 50.007812 55.664062 49.953125 55.320312 49.953125 C 54.617188 49.953125 54.039062 50.117188 53.605469 50.441406 C 53.171875 50.765625 52.953125 51.253906 52.953125 51.867188 C 52.953125 52.410156 53.132812 52.828125 53.515625 53.152344 C 53.894531 53.460938 54.347656 53.621094 54.886719 53.621094 C 55.429688 53.621094 55.9375 53.40625 56.40625 53.027344 L 56.40625 53.496094 L 57.816406 53.496094 L 57.816406 49.84375 C 57.761719 49.175781 57.546875 48.632812 57.113281 48.269531 Z M 54.582031 51.34375 C 54.742188 51.234375 54.980469 51.183594 55.269531 51.183594 C 55.609375 51.183594 55.972656 51.253906 56.351562 51.378906 L 56.351562 51.941406 C 56.046875 52.230469 55.628906 52.375 55.125 52.375 C 54.871094 52.375 54.6875 52.320312 54.542969 52.210938 C 54.417969 52.105469 54.347656 51.976562 54.347656 51.796875 C 54.347656 51.597656 54.417969 51.453125 54.582031 51.34375 Z M 54.582031 51.34375 "/>
<path style=" stroke:none;fill-rule:nonzero;fill:rgb(100%,100%,100%);fill-opacity:1;" d="M 63.257812 48.378906 C 62.859375 47.925781 62.300781 47.710938 61.59375 47.710938 C 61.035156 47.710938 60.566406 47.875 60.222656 48.199219 L 60.222656 47.855469 L 58.828125 47.855469 L 58.828125 53.515625 L 60.257812 53.515625 L 60.257812 50.386719 C 60.257812 49.953125 60.367188 49.609375 60.566406 49.375 C 60.765625 49.140625 61.035156 49.011719 61.414062 49.011719 C 61.738281 49.011719 61.976562 49.121094 62.15625 49.335938 C 62.335938 49.554688 62.425781 49.863281 62.425781 50.222656 L 62.425781 53.515625 L 63.855469 53.515625 L 63.855469 50.222656 C 63.855469 49.445312 63.65625 48.8125 63.257812 48.378906 Z M 63.257812 48.378906 "/>
<path style=" stroke:none;fill-rule:nonzero;fill:rgb(100%,100%,100%);fill-opacity:1;" d="M 28.113281 48.269531 C 27.679688 47.910156 27.082031 47.710938 26.339844 47.710938 C 25.871094 47.710938 25.417969 47.820312 25.019531 48.019531 C 24.640625 48.199219 24.28125 48.523438 24.046875 48.921875 L 24.0625 48.941406 L 24.984375 49.808594 C 25.363281 49.210938 25.78125 48.996094 26.339844 48.996094 C 26.648438 48.996094 26.882812 49.066406 27.082031 49.230469 C 27.261719 49.390625 27.371094 49.589844 27.371094 49.84375 L 27.371094 50.117188 C 27.011719 50.007812 26.667969 49.953125 26.324219 49.953125 C 25.617188 49.953125 25.039062 50.117188 24.605469 50.441406 C 24.171875 50.765625 23.953125 51.253906 23.953125 51.867188 C 23.953125 52.410156 24.136719 52.828125 24.515625 53.152344 C 24.894531 53.460938 25.347656 53.621094 25.890625 53.621094 C 26.429688 53.621094 26.9375 53.40625 27.40625 53.027344 L 27.40625 53.496094 L 28.816406 53.496094 L 28.816406 49.84375 C 28.765625 49.175781 28.546875 48.632812 28.113281 48.269531 Z M 25.582031 51.34375 C 25.746094 51.234375 25.980469 51.183594 26.269531 51.183594 C 26.613281 51.183594 26.972656 51.253906 27.355469 51.378906 L 27.355469 51.941406 C 27.046875 52.230469 26.628906 52.375 26.125 52.375 C 25.871094 52.375 25.691406 52.320312 25.546875 52.210938 C 25.417969 52.105469 25.347656 51.976562 25.347656 51.796875 C 25.347656 51.597656 25.417969 51.453125 25.582031 51.34375 Z M 25.582031 51.34375 "/>
<path style=" stroke:none;fill-rule:nonzero;fill:rgb(100%,100%,100%);fill-opacity:1;" d="M 36.519531 53.640625 C 34.222656 53.640625 32.363281 51.777344 32.363281 49.484375 C 32.363281 47.1875 34.222656 45.324219 36.519531 45.324219 C 38.816406 45.324219 40.679688 47.1875 40.679688 49.484375 C 40.679688 51.777344 38.816406 53.640625 36.519531 53.640625 Z M 36.519531 46.789062 C 35.039062 46.789062 33.824219 48 33.824219 49.484375 C 33.824219 50.964844 35.039062 52.175781 36.519531 52.175781 C 38.003906 52.175781 39.214844 50.964844 39.214844 49.484375 C 39.214844 48 38.003906 46.789062 36.519531 46.789062 Z M 36.519531 46.789062 "/>
</g>
</svg>
