<?xml version="1.0" encoding="UTF-8"?>
<svg xmlns="http://www.w3.org/2000/svg" xmlns:xlink="http://www.w3.org/1999/xlink" width="46pt" height="63pt" viewBox="0 0 46 63" version="1.1">
<g id="surface1">
<path style=" stroke:none;fill-rule:evenodd;fill:rgb(100%,100%,100%);fill-opacity:1;" d="M 26.703125 55.441406 C 28.378906 55.441406 30.121094 56.488281 30.121094 59.003906 C 30.121094 61.523438 28.378906 62.570312 26.703125 62.570312 C 25.019531 62.570312 23.277344 61.523438 23.277344 59.003906 C 23.277344 56.488281 25.019531 55.441406 26.703125 55.441406 Z M 42.035156 55.570312 L 42.035156 59.675781 C 42.035156 60.621094 42.347656 61.050781 43.101562 61.050781 C 43.855469 61.050781 44.15625 60.621094 44.15625 59.675781 L 44.15625 55.570312 L 46 55.570312 L 46 59.683594 C 46 61.503906 45.113281 62.542969 43.082031 62.542969 C 41.046875 62.542969 40.152344 61.503906 40.152344 59.683594 L 40.152344 55.570312 Z M 34.101562 55.570312 L 34.101562 58.058594 L 36.023438 55.570312 L 38.207031 55.570312 L 35.863281 58.28125 L 38.414062 62.441406 L 36.285156 62.441406 L 34.636719 59.691406 L 34.101562 60.304688 L 34.101562 62.441406 L 32.21875 62.441406 L 32.21875 55.570312 Z M 13.480469 55.570312 L 13.480469 57.113281 L 10.390625 57.113281 L 10.390625 58.226562 L 12.59375 58.226562 L 12.59375 59.675781 L 10.390625 59.675781 L 10.390625 60.945312 L 13.640625 60.945312 L 13.640625 62.441406 L 8.507812 62.441406 L 8.507812 55.570312 Z M 18.429688 55.570312 C 20.21875 55.570312 21.3125 56.15625 21.3125 57.808594 C 21.3125 58.886719 20.851562 59.507812 19.9375 59.8125 L 21.414062 62.441406 L 19.417969 62.441406 L 18.070312 60.054688 L 17.554688 60.054688 L 17.554688 62.441406 L 15.707031 62.441406 L 15.707031 55.570312 Z M 1.882812 55.570312 L 1.882812 58.125 L 4.199219 58.125 L 4.199219 55.570312 L 6.082031 55.570312 L 6.082031 62.441406 L 4.199219 62.441406 L 4.199219 59.664062 L 1.882812 59.664062 L 1.882812 62.441406 L 0 62.441406 L 0 55.570312 Z M 26.703125 56.972656 C 25.714844 56.972656 25.160156 57.742188 25.160156 59.003906 C 25.160156 60.269531 25.714844 61.085938 26.703125 61.085938 C 27.683594 61.085938 28.238281 60.269531 28.238281 59.003906 C 28.238281 57.742188 27.683594 56.972656 26.703125 56.972656 Z M 18.363281 57.074219 L 17.554688 57.074219 L 17.554688 58.644531 L 18.363281 58.644531 C 19.136719 58.644531 19.476562 58.429688 19.476562 57.855469 C 19.476562 57.277344 19.136719 57.074219 18.363281 57.074219 Z M 41.398438 0 C 43.941406 0 46 2.03125 46 4.535156 L 46 45.863281 C 46 48.367188 43.941406 50.398438 41.398438 50.398438 L 4.601562 50.398438 C 2.058594 50.398438 0 48.367188 0 45.863281 L 0 4.535156 C 0 2.03125 2.058594 0 4.601562 0 Z M 41.398438 2.519531 L 4.601562 2.519531 C 3.472656 2.519531 2.554688 3.425781 2.554688 4.535156 L 2.554688 45.863281 C 2.554688 46.976562 3.472656 47.878906 4.601562 47.878906 L 41.398438 47.878906 C 42.527344 47.878906 43.445312 46.976562 43.445312 45.863281 L 43.445312 4.535156 C 43.445312 3.425781 42.527344 2.519531 41.398438 2.519531 Z M 12.140625 32.761719 L 17.890625 37.800781 L 12.140625 42.839844 Z M 17.25 7.558594 L 17.25 21.867188 C 19.800781 21.050781 23.367188 20.160156 26.832031 20.160156 C 29.992188 20.160156 31.882812 21.382812 32.914062 22.414062 C 35.019531 24.511719 35.136719 27.164062 35.140625 27.667969 L 35.140625 42.839844 L 30.027344 42.839844 L 30.027344 27.789062 C 30.003906 26.613281 29.429688 25.199219 26.832031 25.199219 C 21.636719 25.199219 15.808594 27.777344 15.75 27.804688 L 12.140625 29.414062 L 12.140625 7.558594 Z M 35.140625 7.558594 C 34.792969 10.421875 33.617188 13.167969 31.304688 15.75 L 26.195312 15.75 C 28.203125 13.152344 29.464844 10.417969 30.027344 7.558594 Z M 35.140625 7.558594 "/>
</g>
</svg>
