<?xml version="1.0" encoding="UTF-8"?>
<svg xmlns="http://www.w3.org/2000/svg" xmlns:xlink="http://www.w3.org/1999/xlink" width="64pt" height="64pt" viewBox="0 0 64 64" version="1.1">
<g id="surface1">
<path style=" stroke:none;fill-rule:nonzero;fill:rgb(100%,100%,100%);fill-opacity:1;" d="M 32 62.078125 C 20.902344 62.078125 9.113281 59.019531 9.113281 53.335938 L 9.113281 10.664062 C 9.113281 4.980469 20.902344 1.921875 32 1.921875 C 43.097656 1.921875 54.886719 4.980469 54.886719 10.664062 L 54.886719 53.335938 C 54.886719 59.019531 43.097656 62.078125 32 62.078125 Z M 32 4.480469 C 19.40625 4.480469 11.671875 8.078125 11.671875 10.664062 L 11.671875 53.335938 C 11.671875 55.898438 19.355469 59.519531 32 59.519531 C 44.644531 59.519531 52.328125 55.921875 52.328125 53.335938 L 52.328125 10.664062 C 52.328125 8.078125 44.59375 4.480469 32 4.480469 Z M 32 4.480469 "/>
<path style=" stroke:none;fill-rule:nonzero;fill:rgb(100%,100%,100%);fill-opacity:1;" d="M 32 18.113281 C 20.902344 18.113281 9.113281 15.054688 9.113281 9.371094 L 11.671875 9.371094 C 11.671875 11.929688 19.355469 15.550781 32 15.550781 C 44.644531 15.550781 52.328125 11.957031 52.328125 9.371094 L 54.886719 9.371094 C 54.886719 15.054688 43.097656 18.113281 32 18.113281 Z M 32 18.113281 "/>
</g>
</svg>
